<?xml version="1.0" encoding="UTF-8" standalone="no"?>
<!-- Created with Inkscape (http://www.inkscape.org/) -->

<svg
   xmlns:osb="http://www.openswatchbook.org/uri/2009/osb"
   xmlns:dc="http://purl.org/dc/elements/1.1/"
   xmlns:cc="http://creativecommons.org/ns#"
   xmlns:rdf="http://www.w3.org/1999/02/22-rdf-syntax-ns#"
   xmlns:svg="http://www.w3.org/2000/svg"
   xmlns="http://www.w3.org/2000/svg"
   xmlns:xlink="http://www.w3.org/1999/xlink"
   xmlns:sodipodi="http://sodipodi.sourceforge.net/DTD/sodipodi-0.dtd"
   xmlns:inkscape="http://www.inkscape.org/namespaces/inkscape"
   width="351mm"
   height="170mm"
   viewBox="0 0 351 170"
   version="1.1"
   id="svg8"
   inkscape:version="0.92.4 (5da689c313, 2019-01-14)"
   sodipodi:docname="Cobra Inimigo.svg">
  <defs
     id="defs2">
    <linearGradient
       inkscape:collect="always"
       id="Cor_Gradiente-3">
      <stop
         style="stop-color:#ffff93;stop-opacity:1;"
         offset="0"
         id="stop9153" />
      <stop
         style="stop-color:#ffff93;stop-opacity:0;"
         offset="1"
         id="stop9155" />
    </linearGradient>
    <linearGradient
       id="linearGradient9123"
       osb:paint="solid">
      <stop
         style="stop-color:#ffff93;stop-opacity:1;"
         offset="0"
         id="stop9121" />
    </linearGradient>
    <inkscape:path-effect
       effect="bspline"
       id="path-effect3577"
       is_visible="true"
       weight="33.333333"
       steps="2"
       helper_size="0"
       apply_no_weight="true"
       apply_with_weight="true"
       only_selected="false" />
    <inkscape:path-effect
       effect="bspline"
       id="path-effect3569"
       is_visible="true"
       weight="33.333333"
       steps="2"
       helper_size="0"
       apply_no_weight="true"
       apply_with_weight="true"
       only_selected="false" />
    <inkscape:path-effect
       effect="bspline"
       id="path-effect3565"
       is_visible="true"
       weight="33.333333"
       steps="2"
       helper_size="0"
       apply_no_weight="true"
       apply_with_weight="true"
       only_selected="false" />
    <inkscape:path-effect
       effect="spiro"
       id="path-effect3545"
       is_visible="true" />
    <inkscape:path-effect
       effect="spiro"
       id="path-effect3541"
       is_visible="true" />
    <inkscape:path-effect
       effect="bspline"
       id="path-effect3529"
       is_visible="true"
       weight="33.333333"
       steps="2"
       helper_size="0"
       apply_no_weight="true"
       apply_with_weight="true"
       only_selected="false" />
    <inkscape:path-effect
       effect="bspline"
       id="path-effect3513"
       is_visible="true"
       weight="33.333333"
       steps="2"
       helper_size="0"
       apply_no_weight="true"
       apply_with_weight="true"
       only_selected="false" />
    <radialGradient
       inkscape:collect="always"
       xlink:href="#Cor_Gradiente-3"
       id="radialGradient9938"
       cx="671.63263"
       cy="262.59845"
       fx="671.63263"
       fy="262.59845"
       r="607.76855"
       gradientTransform="matrix(1,0,0,0.467633,0,139.79875)"
       gradientUnits="userSpaceOnUse" />
    <filter
       inkscape:collect="always"
       style="color-interpolation-filters:sRGB"
       id="filter10316"
       x="-0.073366509"
       width="1.146733"
       y="-0.18835242"
       height="1.3767048">
      <feGaussianBlur
         inkscape:collect="always"
         stdDeviation="32.403542"
         id="feGaussianBlur10318" />
    </filter>
    <meshgradient
       inkscape:collect="always"
       id="meshgradient10330"
       gradientUnits="userSpaceOnUse"
       x="141.63258"
       y="56.154327">
      <meshrow
         id="meshrow10344">
        <meshpatch
           id="meshpatch10346">
          <stop
             path="c 353.333,0  795.238,-20  1060,0"
             style="stop-color:#ffffff;stop-opacity:1"
             id="stop10348" />
          <stop
             path="c 0,137.629  0,275.259  0,412.888"
             style="stop-color:#ffff00;stop-opacity:1"
             id="stop10350" />
          <stop
             path="c -353.333,0  -706.667,0  -1060,0"
             style="stop-color:#ffffff;stop-opacity:1"
             id="stop10352" />
          <stop
             path="c 0,-137.629  0,-275.259  0,-412.888"
             style="stop-color:#ffff00;stop-opacity:1"
             id="stop10354" />
        </meshpatch>
      </meshrow>
    </meshgradient>
  </defs>
  <sodipodi:namedview
     id="base"
     pagecolor="#ffffff"
     bordercolor="#666666"
     borderopacity="1.0"
     inkscape:pageopacity="0.0"
     inkscape:pageshadow="2"
     inkscape:zoom="0.35"
     inkscape:cx="331.06115"
     inkscape:cy="268.57143"
     inkscape:document-units="mm"
     inkscape:current-layer="layer1"
     showgrid="false"
     units="mm"
     width="221mm"
     inkscape:window-width="1366"
     inkscape:window-height="705"
     inkscape:window-x="-8"
     inkscape:window-y="-8"
     inkscape:window-maximized="1" />
  <metadata
     id="metadata5">
    <rdf:RDF>
      <cc:Work
         rdf:about="">
        <dc:format>image/svg+xml</dc:format>
        <dc:type
           rdf:resource="http://purl.org/dc/dcmitype/StillImage" />
        <dc:title></dc:title>
      </cc:Work>
    </rdf:RDF>
  </metadata>
  <g
     inkscape:label="Camada 1"
     inkscape:groupmode="layer"
     id="layer1"
     transform="translate(0,-127)">
    <path
       style="fill:none;stroke:#000000;stroke-width:0.19248663px;stroke-linecap:butt;stroke-linejoin:miter;stroke-opacity:1"
       d="m 36.537713,222.53842 c -1.007953,-7.93749 -1.007953,-41.95535 6.494163,-39.08354 7.502117,2.87182 22.735927,43.24141 30.043474,41.47593 7.307548,-1.76548 6.803615,-45.35567 16.50492,-46.36365 9.701305,-1.00799 29.60817,40.56964 40.56952,41.07347 10.96134,0.50383 12.97721,-40.0655 21.41874,-59.59413 8.44152,-19.52862 23.30869,-18.01671 31.12006,-14.4891 7.81137,3.52761 8.56733,9.07135 6.81828,13.73399 -1.74905,4.66264 -6.56612,8.94448 -11.22799,10.70849 -4.66188,1.76401 -9.44928,1.26007 -17.59901,17.02411 -8.14973,15.76403 -19.82063,48.23959 -33.20833,51.46031 -13.3877,3.22073 -28.441824,-22.37128 -37.765191,-19.97758 -9.323368,2.39369 -12.851156,32.88386 -19.906806,33.51376 -7.055649,0.62989 -17.638881,-28.59999 -23.938437,-34.14376 -6.299556,-5.54377 -8.31544,12.59918 -9.323393,4.6617 z"
       id="path3527"
       inkscape:connector-curvature="0"
       inkscape:path-effect="#path-effect3529"
       inkscape:original-d="m 35.52976,248.61905 c 2.65e-4,-34.01812 2.65e-4,-68.03598 0,-102.05357 14.867215,39.81292 30.238361,80.13069 45.357145,120.19643 -0.755692,-43.59367 -1.007674,-87.18677 -1.511906,-130.77976 19.906893,41.57687 39.813761,83.1545 59.720241,124.73214 2.01614,-40.56982 4.03201,-81.13915 6.04762,-121.70833 14.86722,1.51163 29.73439,3.02354 44.60119,4.53571 0.7562,5.5433 1.51216,11.08704 2.26785,16.63096 -4.03164,4.03164 -9.07116,8.06322 -13.60714,12.09523 -4.78773,-0.50426 -9.57513,-1.0082 -14.3631,-1.5119 -11.59157,32.00329 -23.18227,64.50767 -34.7738,96.7619 -15.37092,-25.70289 -30.237836,-51.40502 -45.357146,-77.10714 -3.527502,30.48972 -7.055292,60.97989 -10.583333,91.47024 -10.583172,-29.2307 -21.166402,-58.46058 -31.75,-87.69048 -2.015598,18.1425 -4.031482,36.28545 -6.047621,54.42857 z"
       transform="matrix(1.8382285,0,0,1.0278371,-30.234489,-7.0158073)" />
    <path
       style="opacity:0.96100003;fill:#000000;fill-opacity:0.79396985;stroke:#000000;stroke-width:1.00157475;stroke-miterlimit:4;stroke-dasharray:none;stroke-opacity:1"
       d="m 353.77793,467.40397 c -18.72653,-8.1394 -36.11904,-22.8322 -84.31855,-71.2304 -69.79404,-70.08173 -80.85282,-74.36152 -112.7669,-43.64126 -6.64563,6.39706 -13.0742,10.64095 -14.28571,9.43089 -1.21152,-1.21009 -2.64766,-18.58914 -3.19143,-38.6202 -1.96197,-72.2737 13.72814,-116.15937 41.25065,-115.37922 16.28332,0.46157 38.1311,17.45255 98.30945,76.4551 60.6767,59.49118 73.06306,70.09309 91.85127,78.61863 16.80426,7.62529 26.02544,7.1856 36.6414,-1.74714 11.95507,-10.05954 19.5303,-26.00488 35.79304,-75.34211 24.81451,-75.28119 40.19054,-97.14286 68.32377,-97.14286 23.58683,0 52.28826,16.58983 132.30634,76.47493 105.18846,78.72247 138.85515,93.6395 172.30198,76.34344 22.29845,-11.53096 38.97062,-38.48438 67.34417,-108.87323 C 926.89069,124.70379 948.21946,94.361645 996.53098,71.722104 1041.1287,50.822918 1098.0234,46.523055 1150.927,60.053508 c 38.1355,9.753422 53.5627,20.449471 53.5627,37.136268 0,24.231324 -38.0113,46.895624 -98.5714,58.773264 -51.7149,10.14284 -79.8437,31.93857 -151.16135,117.12807 -67.11637,80.17109 -103.26589,113.28752 -144.963,132.79995 -50.27697,23.52743 -86.26497,18.03917 -186.7328,-28.47723 -62.86703,-29.10729 -77.01397,-34.32132 -98.67634,-36.3682 -31.95117,-3.01914 -55.78117,14.67854 -91.23886,67.75977 -24.57433,36.78851 -38.21996,52.74969 -49.79151,58.24074 -11.75335,5.57735 -17.41037,5.64577 -29.57651,0.35783 z"
       id="path3557"
       inkscape:connector-curvature="0"
       transform="matrix(0.26458333,0,0,0.26458333,0,127)" />
    <path
       style="opacity:0.96100003;fill:#ffff00;fill-opacity:0.79396985;stroke:#000000;stroke-width:0.26499999;stroke-miterlimit:4;stroke-dasharray:none;stroke-opacity:1"
       id="path3571"
       sodipodi:type="arc"
       sodipodi:cx="299.35715"
       sodipodi:cy="149.58929"
       sodipodi:rx="3.7797618"
       sodipodi:ry="3.0238097"
       sodipodi:start="0"
       sodipodi:end="6.2421003"
       sodipodi:open="true"
       d="m 303.13691,149.58929 a 3.7797618,3.0238097 0 0 1 -3.74094,3.02365 3.7797618,3.0238097 0 0 1 -3.81779,-2.96153 3.7797618,3.0238097 0 0 1 3.66252,-3.08449 3.7797618,3.0238097 0 0 1 3.89302,2.89818" />
    <path
       style="opacity:0.96100003;fill:#552200;fill-opacity:0.79396985;stroke:#000000;stroke-width:1.00157475;stroke-miterlimit:4;stroke-dasharray:none;stroke-opacity:1"
       d="m 352.0177,465.92246 c -17.04622,-8.50872 -27.78609,-17.53006 -84.42246,-70.91377 -28.93482,-27.27309 -58.02628,-52.21943 -64.64768,-55.43638 -15.06893,-7.32104 -22.17147,-5.69558 -40.19613,9.19912 -7.62919,6.3044 -15.38197,11.46254 -17.22841,11.46254 -5.32279,0 -7.90141,-49.88108 -4.20074,-81.2596 7.42793,-62.98246 27.37041,-83.10155 61.14247,-61.68395 14.25585,9.0408 44.57444,36.07288 109.16783,97.33416 29.18067,27.67536 44.63686,40.13285 57.14286,46.05645 9.42857,4.46591 19.56203,8.12088 22.51879,8.12211 10.19725,0.003 28.88418,-22.82665 37.41492,-45.71203 31.54254,-84.61892 36.5632,-96.49006 48.15323,-113.85652 14.93223,-22.37439 37.47483,-25.70121 68.32397,-10.08321 18.49486,9.3634 39.85157,23.71995 108.40714,72.87414 63.30952,45.39276 92.00035,63.15582 115.20115,71.32334 15.29405,5.38403 18.77328,5.65991 32.56291,2.58197 27.5036,-6.13894 48.11289,-33.65238 75.9634,-101.41114 17.28874,-42.06258 48.2912,-104.90194 60.95431,-123.54917 18.52806,-27.283801 41.75912,-44.029584 77.90064,-56.153597 44.8128,-15.032877 100.8365,-15.183987 147.2797,-0.397252 30.1585,9.601955 39.4757,17.282851 39.4757,32.542854 0,23.290165 -28.4536,41.248715 -91.2346,57.582895 -18.8219,4.89703 -41.9647,12.96993 -51.4286,17.93979 -20.8849,10.96757 -66.40784,55.44706 -121.97312,119.17733 -64.15817,73.58586 -98.85869,102.74369 -141.624,119.00255 -25.1236,9.55168 -53.4252,10.03908 -84.32817,1.45225 -12.1808,-3.3846 -53.38786,-19.51271 -91.57126,-35.84023 -38.18337,-16.32751 -76.77874,-31.21317 -85.76746,-33.07922 -37.29877,-7.74318 -56.94623,5.54637 -105.44291,71.3218 -29.6898,40.26788 -36.61286,47.71637 -49.26326,53.00202 -12.5556,5.24609 -14.8233,5.11783 -28.28022,-1.59925 z M 1139.9686,93.616551 c 10.4879,-7.66892 0.3162,-21.529366 -13.2929,-18.113684 -9.7707,2.452287 -11.8791,9.323669 -4.9783,16.224478 6.606,6.606066 11.1745,7.078434 18.2712,1.889206 z"
       id="path3573"
       inkscape:connector-curvature="0"
       transform="matrix(0.26458333,0,0,0.26458333,0,127)" />
    <path
       style="fill:none;stroke:#000000;stroke-width:0.16600595px;stroke-linecap:butt;stroke-linejoin:miter;stroke-opacity:1"
       d="m 323.29591,153.24305 c -10e-6,0.378 5.03966,0.62999 6.67757,2.14166 1.63792,1.51167 -0.12606,4.28363 -0.12598,3.90546 7e-5,-0.37817 1.76377,-3.90556 0.12616,-5.41734 -1.63761,-1.51179 -6.67773,-1.00778 -6.67775,-0.62978 z"
       id="path3575"
       inkscape:connector-curvature="0"
       inkscape:path-effect="#path-effect3577"
       inkscape:original-d="m 318.25594,153.36905 c 5.03997,0.25172 10.07964,0.50371 15.11906,0.75596 -1.76353,2.77142 -3.52751,5.54338 -5.29167,8.31547 1.76435,-3.52843 3.52803,-7.05582 5.29167,-10.58333 -5.03897,0.50366 -10.07909,1.00767 -15.11906,1.5119 z"
       transform="matrix(1.3118871,0,0,1.9363379,-104.62765,-143.11488)" />
    <path
       style="opacity:0.96100003;fill:#ff0000;fill-opacity:0.79396985;stroke:#000000;stroke-width:1.00157475;stroke-miterlimit:4;stroke-dasharray:none;stroke-opacity:1"
       d="m 345.65105,463.26183 c -14.03489,-8.04994 -28.51416,-20.75914 -92.22447,-80.95012 -50.82047,-48.01314 -64.18142,-53.95624 -84.61092,-37.63585 -15.66009,12.51028 -23.75362,17.0828 -26.09423,14.7422 -3.87215,-3.87215 -4.69463,-64.27333 -1.2019,-88.26537 7.62363,-52.36782 26.68237,-72.2632 55.25493,-57.68052 12.71215,6.48794 47.26656,36.23474 97.70956,84.11508 50.55262,47.98438 68.11722,61.77775 85.22447,66.92626 24.82433,7.47103 34.45593,-4.71608 62.09083,-78.56525 19.31797,-51.62365 25.52772,-65.29219 36.02157,-79.28872 15.62152,-20.83565 38.38446,-22.91462 70.50615,-6.43942 10.10108,5.18083 44.54851,28.00917 76.54985,50.72964 112.16726,79.63706 138.51137,94.9985 162.91766,94.9985 35.83297,0 54.22714,-21.12515 89.47297,-102.75694 34.02246,-78.79845 57.19132,-121.42562 76.89323,-141.47185 19.64791,-19.991342 46.84365,-34.601741 80.32895,-43.155338 30.019,-7.668142 84.2014,-7.101314 115.3096,1.206308 42.8999,11.456662 57.0841,22.522802 53.4817,41.72515 -4.0213,21.43507 -37.1638,40.14635 -99.1362,55.96931 -50.398,12.86775 -69.3176,27.56138 -146.33356,113.64792 -98.54098,110.14664 -132.09158,136.71521 -184.68663,146.25249 -33.2814,6.03509 -57.26077,-0.34505 -152.9206,-40.68734 -29.85715,-12.59154 -61.237,-25.29968 -69.733,-28.24028 -17.10692,-5.921 -41.3342,-6.97198 -53.56075,-2.32343 -14.0972,5.35974 -31.63865,22.17771 -52.79605,50.61851 -36.58773,49.18306 -49.40245,63.97309 -60.22495,69.5082 -14.3629,7.34586 -21.16011,6.81629 -38.23821,-2.97914 z M 1141.332,90.596108 c 4.1619,-5.014706 1.3214,-12.510232 -5.5697,-14.697372 -6.38,-2.024918 -16.9869,3.064118 -16.9869,8.150046 0,9.535112 16.1794,14.23138 22.5566,6.547326 z"
       id="path3579"
       inkscape:connector-curvature="0"
       transform="matrix(0.26458333,0,0,0.26458333,0,127)" />
    <path
       style="opacity:0.337;fill:url(#meshgradient10330);fill-opacity:1;stroke:url(#radialGradient9938);stroke-width:1.00157481;stroke-miterlimit:3.5;stroke-dasharray:none;stroke-opacity:1;filter:url(#filter10316)"
       d="m 340.59513,458.09111 c -8.74481,-5.89285 -36.19594,-29.51968 -61.00253,-52.50402 -56.39564,-52.253 -68.39508,-62.30492 -80.41753,-67.36575 -11.65932,-4.90799 -21.45143,-2.1603 -37.44562,10.50735 -19.41738,15.37882 -20.09687,14.26542 -20.09687,-32.9307 0,-61.92966 9.06609,-93.80205 29.47352,-103.61596 17.0198,-8.1848 34.54182,4.06861 122.51548,85.67697 56.75555,52.649 78.54887,68.46763 94.96921,68.93306 19.2976,0.54703 28.36987,-13.32792 56.23362,-86.00244 28.1842,-73.51036 39.52143,-89.11473 64.76474,-89.14121 21.02071,-0.022 37.93894,7.73648 80.87754,37.0896 21.89217,14.96564 62.73717,42.90053 90.76672,62.07754 66.73523,45.65836 85.11465,55.10045 107.291,55.11876 34.72497,0.0286 52.93788,-20.57033 88.44091,-100.02769 61.25154,-137.08366 78.745,-159.295326 143.23868,-181.871926 21.5636,-7.548522 25.5252,-7.993552 70,-7.863534 43.4286,0.126959 48.991,0.749589 70.5998,7.902745 30.3648,10.05159 40.8288,18.595589 40.8288,33.337126 0,21.324989 -28.6122,39.424419 -90,56.931919 -59.7625,17.04398 -73.1014,26.99957 -151.79285,113.29226 -64.69349,70.94253 -108.39643,113.1895 -131.2234,126.85173 -36.1464,21.63403 -72.31286,27.80746 -108.52634,18.52489 -9.36589,-2.40074 -52.386,-18.66023 -95.60029,-36.13223 -72.47217,-29.30126 -80.34577,-31.86871 -101.42857,-33.07434 -22.16411,-1.26749 -23.28874,-1.01657 -37.0924,8.27508 -14.20083,9.55903 -28.27871,25.47832 -67.75361,76.61595 -33.7419,43.71085 -48.23223,49.19837 -77.62001,29.39482 z M 1141.8314,89.994476 c 5.3325,-6.425317 -0.2009,-14.04622 -10.1988,-14.04622 -4.3718,0 -9.3,2.142229 -10.9515,4.760506 -6.688,10.602594 12.9147,19.20888 21.1503,9.285714 z"
       id="path3581"
       inkscape:connector-curvature="0"
       transform="matrix(0.26458333,0,0,0.26458333,0,127)" />
  </g>
</svg>
